<svg xmlns:dc="http://purl.org/dc/elements/1.1/" xmlns:cc="http://creativecommons.org/ns#" xmlns:rdf="http://www.w3.org/1999/02/22-rdf-syntax-ns#" xmlns:svg="http://www.w3.org/2000/svg" xmlns="http://www.w3.org/2000/svg" xmlns:sodipodi="http://sodipodi.sourceforge.net/DTD/sodipodi-0.dtd" xmlns:inkscape="http://www.inkscape.org/namespaces/inkscape" version="1.1" xml:space="preserve" width="108.44144348486338" height="110.72072174243169"><rect id="backgroundrect" width="100%" height="100%" x="0" y="0" fill="none" stroke="none" class="" style=""/><g class="currentLayer" style=""><title>Layer 1</title><g id="svg_1" class="selected" fill-opacity="1" fill="#2a659c"><path d="m5.402745857838539,101.26045513413851 c31.70499504954,0.21074500000000856 63.9670578581925,0 95.67362399793001,0 l0,-4.952517 l-90.49599335319,0 l0,-90.9462204 l-5.177630644740001,0 z" style="" fill="#2a659c" fill-opacity="1" stroke="none" id="svg_2"/></g><g class="selected" id="svg_6" transform="rotate(179.43356323242188 54.14045715332031,53.357917785644524) " fill-opacity="1" fill="#2a659c"><path d="m6.303649082783608,101.26045584939425 c31.70499504954,0.21074500000001256 63.9670578581925,0 95.67362399793001,0 l0,-4.952517 l-90.49599335319,0 l0,-90.9462204 l-5.177630644740001,0 z" style="" fill="#2a659c" fill-opacity="1" stroke="none" id="svg_7"/></g><g id="svg_3" class="selected" fill-opacity="1" fill="#2a659c"><path d="m91.88549840395353,62.26578461768341 l-23.562082,16.439442 l-24.354084,-28.207071 l-22.770079,16.688046 l0,2.269261 L43.96933240395356,53.210096617683405 L68.32341640395356,81.5042816176834 L91.88549840395353,64.91120861768341 m-4.809748,-1.7834210000000001 c0,2.582553 2.083227,4.676119 4.653016,4.676119 c2.5697900000000002,0 4.653016,-2.093566 4.653016,-4.676119 c0,-2.5825430000000003 -2.0832260000000002,-4.67611 -4.653016,-4.67611 c-2.569789,0 -4.653016,2.093567 -4.653016,4.67611 M63.274351403953546,79.94944261768342 c0,2.744058 2.213512,4.968549 4.944017,4.968549 c2.730504,0 4.944017,-2.224491 4.944017,-4.968549 c0,-2.7440670000000003 -2.213513,-4.968558 -4.944017,-4.968558 c-2.730505,0 -4.944017,2.224491 -4.944017,4.968558 M38.92115840395354,51.08632761768341 c0,2.744058 2.213513,4.968558 4.944017,4.968558 c2.730504,0 4.944017,-2.2245 4.944017,-4.968558 c0,-2.744058 -2.213513,-4.968558 -4.944017,-4.968558 c-2.730504,0 -4.944017,2.2245 -4.944017,4.968558 M16.211446403953545,68.11435261768341 c0,2.744058 2.213503,4.968558 4.944007,4.968558 c2.730504,0 4.944018,-2.2245 4.944018,-4.968558 c0,-2.744058 -2.213514,-4.968549 -4.944018,-4.968549 c-2.730504,0 -4.944007,2.224491 -4.944007,4.968549 z" style="" fill="#2a659c" fill-opacity="1" stroke="none" id="svg_4"/><path d="m91.83537240395356,31.80147461768341 l-23.562082,12.189282 l-24.354081,-15.456591 l-22.77008,8.187726 l0,2.269261 L43.919209403953545,31.24610661768341 L68.27329040395355,46.33958261768342 L91.83537240395356,33.99666961768341 m-4.809748,-1.333192 c0,2.582553 2.083227,4.676119 4.653016,4.676119 c2.5697900000000002,0 4.653016,-2.093566 4.653016,-4.676119 c0,-2.5825430000000003 -2.0832260000000002,-4.67611 -4.653016,-4.67611 c-2.569789,0 -4.653016,2.093567 -4.653016,4.67611 M63.22422540395354,45.23497261768341 c0,2.744058 2.213512,4.968549 4.944017,4.968549 c2.730504,0 4.944017,-2.224491 4.944017,-4.968549 c0,-2.7440670000000003 -2.213513,-4.968558 -4.944017,-4.968558 c-2.730505,0 -4.944017,2.224491 -4.944017,4.968558 M38.87102940395354,29.122337617683414 c0,2.744058 2.21352,4.968558 4.94402,4.968558 c2.7305,0 4.94402,-2.2245 4.94402,-4.968558 c0,-2.744057 -2.21352,-4.968558 -4.94402,-4.968558 c-2.7305,0 -4.94402,2.224501 -4.94402,4.968558 m-22.70971,8.527705000000001 c0,2.744058 2.2135,4.968558 4.9440100000000005,4.968558 c2.7305,0 4.94402,-2.2245 4.94402,-4.968558 c0,-2.744058 -2.21352,-4.968549 -4.94402,-4.968549 c-2.7305099999999998,0 -4.9440100000000005,2.224491 -4.9440100000000005,4.968549 z" style="" fill="#2a659c" fill-opacity="1" stroke="none" id="svg_5"/></g></g></svg>