<svg xmlns="http://www.w3.org/2000/svg" aria-hidden="true" focusable="false" data-prefix="far" data-icon="folder" role="img" width="512" height="512" style=""><rect id="backgroundrect" width="100%" height="100%" x="0" y="0" fill="none" stroke="none"/><g class="currentLayer" style=""><title>Layer 1</title><path fill="#0865a1" d="M393.338849768072,193.4269937710759 H265.8016542807908 l-36.28831765349049,-31.46774651796985 c-3.9855373589775382,-3.456095169464014 -9.392583042657066,-5.3972686229796345 -15.032118405610282,-5.3972686229796345 H117.00825954562936 C99.3988269812136,156.56197863012642 85.12396067380905,168.94055949542337 85.12396067380905,184.21073998583853 v165.89256813427266 c0,15.270180490415168 14.274866307404547,27.64876135571211 31.884298871820306,27.64876135571211 h276.33059022244265 c17.609432564415755,0 31.884298871820306,-12.378580865296943 31.884298871820306,-27.64876135571211 V221.075755126788 c0,-15.270180490415168 -14.274866307404547,-27.64876135571211 -31.884298871820306,-27.64876135571211 zm0,156.6763143490353 H117.00825954562936 V184.21073998583853 h93.07558245665544 l36.28831765349049,31.46774651796985 c3.9855373589775382,3.456095169464014 9.392583042657066,5.3972686229796345 15.032118405610282,5.3972686229796345 H393.338849768072 v129.02755299332318 z" id="svg_1" class="selected" fill-opacity="1" stroke="#ababec" stroke-opacity="1"/></g></svg>