<svg id="Layer_1" enable-background="new 0 0 256 256" height="512" viewBox="0 0 256 256" width="512" xmlns="http://www.w3.org/2000/svg"><path d="m229.093 85.552c-.524-.642-1.468-.738-2.11-.214l-86.31 70.438-58.177-23.666c-.642-.26-1.376-.049-1.781.51l-34 47c-.485.671-.335 1.609.336 2.095.266.192.573.285.878.285.465 0 .923-.215 1.217-.621l33.31-46.046 57.91 23.557c.509.207 1.089.119 1.514-.227l87-71c.641-.525.736-1.47.213-2.111z" fill="#8ac6dd"/><path d="m229.093 34.552c-.524-.642-1.468-.738-2.11-.214l-86.31 70.438-58.177-23.666c-.642-.26-1.376-.05-1.781.51l-34 47c-.485.671-.335 1.609.336 2.095.266.192.573.285.878.285.465 0 .923-.215 1.217-.621l33.31-46.046 57.91 23.557c.509.207 1.089.119 1.514-.227l87-71c.641-.525.736-1.47.213-2.111z" fill="#ef6d7a"/><g fill="#3a312a"><path d="m28.375 226.625c-.829 0-1.5.671-1.5 1.5v11.75c0 .829.671 1.5 1.5 1.5s1.5-.671 1.5-1.5v-11.75c0-.829-.671-1.5-1.5-1.5z"/><path d="m61.845 226.625c-.829 0-1.5.671-1.5 1.5v11.75c0 .829.671 1.5 1.5 1.5s1.5-.671 1.5-1.5v-11.75c0-.829-.671-1.5-1.5-1.5z"/><path d="m95.305 226.625c-.829 0-1.5.671-1.5 1.5v11.75c0 .829.671 1.5 1.5 1.5s1.5-.671 1.5-1.5v-11.75c0-.829-.671-1.5-1.5-1.5z"/><path d="m128.775 226.625c-.829 0-1.5.671-1.5 1.5v11.75c0 .829.671 1.5 1.5 1.5s1.5-.671 1.5-1.5v-11.75c0-.829-.672-1.5-1.5-1.5z"/><path d="m162.235 226.625c-.828 0-1.5.671-1.5 1.5v11.75c0 .829.672 1.5 1.5 1.5s1.5-.671 1.5-1.5v-11.75c0-.829-.672-1.5-1.5-1.5z"/><path d="m195.705 226.625c-.828 0-1.5.671-1.5 1.5v11.75c0 .829.672 1.5 1.5 1.5s1.5-.671 1.5-1.5v-11.75c0-.829-.672-1.5-1.5-1.5z"/><path d="m229.165 226.625c-.828 0-1.5.671-1.5 1.5v11.75c0 .829.672 1.5 1.5 1.5s1.5-.671 1.5-1.5v-11.75c0-.829-.672-1.5-1.5-1.5z"/><path d="m28.375 226.625h-11.75c-.829 0-1.5.671-1.5 1.5s.671 1.5 1.5 1.5h11.75c.829 0 1.5-.671 1.5-1.5s-.671-1.5-1.5-1.5z"/><path d="m28.375 193.155h-11.75c-.829 0-1.5.671-1.5 1.5s.671 1.5 1.5 1.5h11.75c.829 0 1.5-.671 1.5-1.5s-.671-1.5-1.5-1.5z"/><path d="m28.375 159.695h-11.75c-.829 0-1.5.671-1.5 1.5s.671 1.5 1.5 1.5h11.75c.829 0 1.5-.671 1.5-1.5s-.671-1.5-1.5-1.5z"/><path d="m28.375 126.225h-11.75c-.829 0-1.5.671-1.5 1.5s.671 1.5 1.5 1.5h11.75c.829 0 1.5-.671 1.5-1.5 0-.828-.671-1.5-1.5-1.5z"/><path d="m28.375 92.765h-11.75c-.829 0-1.5.671-1.5 1.5s.671 1.5 1.5 1.5h11.75c.829 0 1.5-.671 1.5-1.5 0-.828-.671-1.5-1.5-1.5z"/><path d="m28.375 59.295h-11.75c-.829 0-1.5.671-1.5 1.5s.671 1.5 1.5 1.5h11.75c.829 0 1.5-.671 1.5-1.5s-.671-1.5-1.5-1.5z"/><path d="m28.375 25.835h-11.75c-.829 0-1.5.671-1.5 1.5s.671 1.5 1.5 1.5h11.75c.829 0 1.5-.671 1.5-1.5s-.671-1.5-1.5-1.5z"/><path d="m239.375 226.625h-209.5v-210.5c0-.829-.671-1.5-1.5-1.5s-1.5.671-1.5 1.5v212c0 .829.671 1.5 1.5 1.5h211c.828 0 1.5-.671 1.5-1.5s-.672-1.5-1.5-1.5z"/></g><circle cx="81.93" cy="82.5" fill="#f16c7a" r="8"/><path d="m81.93 73c-5.238 0-9.5 4.262-9.5 9.5s4.262 9.5 9.5 9.5 9.5-4.262 9.5-9.5-4.262-9.5-9.5-9.5zm0 16c-3.584 0-6.5-2.916-6.5-6.5s2.916-6.5 6.5-6.5 6.5 2.916 6.5 6.5-2.916 6.5-6.5 6.5z" fill="#3a312a"/><circle cx="47.93" cy="129.5" fill="#f16c7a" r="8"/><path d="m47.93 120c-5.238 0-9.5 4.262-9.5 9.5s4.262 9.5 9.5 9.5 9.5-4.262 9.5-9.5-4.262-9.5-9.5-9.5zm0 16c-3.584 0-6.5-2.916-6.5-6.5s2.916-6.5 6.5-6.5 6.5 2.916 6.5 6.5-2.916 6.5-6.5 6.5z" fill="#3a312a"/><circle cx="140.93" cy="106.5" fill="#f16c7a" r="8"/><path d="m140.931 97c-5.238 0-9.5 4.262-9.5 9.5s4.262 9.5 9.5 9.5 9.5-4.262 9.5-9.5-4.262-9.5-9.5-9.5zm0 16c-3.584 0-6.5-2.916-6.5-6.5s2.916-6.5 6.5-6.5 6.5 2.916 6.5 6.5-2.916 6.5-6.5 6.5z" fill="#3a312a"/><circle cx="227.93" cy="35.5" fill="#f16c7a" r="8"/><path d="m227.931 26c-5.238 0-9.5 4.262-9.5 9.5s4.262 9.5 9.5 9.5 9.5-4.262 9.5-9.5-4.262-9.5-9.5-9.5zm0 16c-3.584 0-6.5-2.916-6.5-6.5s2.916-6.5 6.5-6.5 6.5 2.916 6.5 6.5-2.916 6.5-6.5 6.5z" fill="#3a312a"/><circle cx="183.93" cy="71.5" fill="#f16c7a" r="8"/><path d="m183.931 62c-5.238 0-9.5 4.262-9.5 9.5s4.262 9.5 9.5 9.5 9.5-4.262 9.5-9.5-4.262-9.5-9.5-9.5zm0 16c-3.584 0-6.5-2.916-6.5-6.5s2.916-6.5 6.5-6.5 6.5 2.916 6.5 6.5-2.916 6.5-6.5 6.5z" fill="#3a312a"/><circle cx="81.93" cy="133.5" fill="#8ac6dd" r="8"/><path d="m81.93 124c-5.238 0-9.5 4.262-9.5 9.5s4.262 9.5 9.5 9.5 9.5-4.262 9.5-9.5-4.262-9.5-9.5-9.5zm0 16c-3.584 0-6.5-2.916-6.5-6.5s2.916-6.5 6.5-6.5 6.5 2.916 6.5 6.5-2.916 6.5-6.5 6.5z" fill="#3a312a"/><circle cx="47.93" cy="180.5" fill="#8ac6dd" r="8"/><path d="m47.93 171c-5.238 0-9.5 4.262-9.5 9.5s4.262 9.5 9.5 9.5 9.5-4.262 9.5-9.5-4.262-9.5-9.5-9.5zm0 16c-3.584 0-6.5-2.916-6.5-6.5s2.916-6.5 6.5-6.5 6.5 2.916 6.5 6.5-2.916 6.5-6.5 6.5z" fill="#3a312a"/><circle cx="140.93" cy="157.5" fill="#8ac6dd" r="8"/><path d="m140.931 148c-5.238 0-9.5 4.262-9.5 9.5s4.262 9.5 9.5 9.5 9.5-4.262 9.5-9.5-4.262-9.5-9.5-9.5zm0 16c-3.584 0-6.5-2.916-6.5-6.5s2.916-6.5 6.5-6.5 6.5 2.916 6.5 6.5-2.916 6.5-6.5 6.5z" fill="#3a312a"/><circle cx="227.93" cy="86.5" fill="#8ac6dd" r="8"/><path d="m227.931 77c-5.238 0-9.5 4.262-9.5 9.5s4.262 9.5 9.5 9.5 9.5-4.262 9.5-9.5-4.262-9.5-9.5-9.5zm0 16c-3.584 0-6.5-2.916-6.5-6.5s2.916-6.5 6.5-6.5 6.5 2.916 6.5 6.5-2.916 6.5-6.5 6.5z" fill="#3a312a"/><circle cx="183.93" cy="122.5" fill="#8ac6dd" r="8"/><path d="m183.931 113c-5.238 0-9.5 4.262-9.5 9.5s4.262 9.5 9.5 9.5 9.5-4.262 9.5-9.5-4.262-9.5-9.5-9.5zm0 16c-3.584 0-6.5-2.916-6.5-6.5s2.916-6.5 6.5-6.5 6.5 2.916 6.5 6.5-2.916 6.5-6.5 6.5z" fill="#3a312a"/></svg>